# xmcd CD database file
#
# Track frame offsets:
#	150
#	7995
#	94017
#	110812
#	134512
#	147707
#	209997
#	253037
#	301890
#	316832
#	345765
#
# Disc length: 4739 seconds
#
# Revision: 0
# Processed by: cddbd v1.5PL3 Copyright (c) Steve Scherf et al.
# Submitted via: CDex 1.51
#
DISCID=a112810b
DTITLE=Position Alpha - The Great Sound of Sound
DYEAR=1997
DGENRE=Jazz
TTITLE0=Fanfar - Mallbolali
TTITLE1=The Dada Zone
TTITLE2=Epistrophy
TTITLE3=The Great Sound of Sound
TTITLE4=Riviera II
TTITLE5=En ny slags likgiltighet
TTITLE6=Ecclusiastics
TTITLE7=The Mama Zone
TTITLE8=Jagad av Jagger, jagad av Watts
TTITLE9=Well, You Needn't
TTITLE10=Jelly Roll
EXTD=YEAR: 1997
EXTT0=
EXTT1=
EXTT2=
EXTT3=
EXTT4=
EXTT5=
EXTT6=
EXTT7=
EXTT8=
EXTT9=
EXTT10=
PLAYORDER=
